PathFileType  4	(X/Y/Z) C:\Users\antoi\Documents\MyRepositories\mobilecap\ResultsAnalysis
DataRate	CameraRate	NumFrames	NumMarkers	Units	OrigDataRate	OrigDataStartFrame	OrigNumFrames
100.0	100.0	6	51	mm	100.0	21	163
Frame#	Time	r_knee			r_shank_antsup			r_ankle			r_calc			r_5meta			r_toe			L_knee			L_shank_antsup			L_ankle			L_calc			L_5meta			L_toe			r_sh2			r_sh3			r_sh4			L_sh2			L_sh3			r_thigh1			r_thigh2			r_thigh3			r_thigh4			r_thigh5			L_thigh1			L_thigh2			L_thigh3			L_thigh4			r.ASIS			r.PSIS			L.ASIS			L.PSIS			C7			R_Shoulder			L_Shoulder			R_Sternum			L_Sternum			R_humerus			R_elbow_med			R_elbow_lat			R_forearm			R_wrist_radius			R_wrist_ulna			L_humerus			L_elbow_med			L_elbow_lat			L_forearm			L_wrist_radius			L_wrist_ulna			R_HJC			L_HJC			R_HJC_reg			L_HJC_reg			
		X1	Y1	Z1	X2	Y2	Z2	X3	Y3	Z3	X4	Y4	Z4	X5	Y5	Z5	X6	Y6	Z6	X7	Y7	Z7	X8	Y8	Z8	X9	Y9	Z9	X10	Y10	Z10	X11	Y11	Z11	X12	Y12	Z12	X13	Y13	Z13	X14	Y14	Z14	X15	Y15	Z15	X16	Y16	Z16	X17	Y17	Z17	X18	Y18	Z18	X19	Y19	Z19	X20	Y20	Z20	X21	Y21	Z21	X22	Y22	Z22	X23	Y23	Z23	X24	Y24	Z24	X25	Y25	Z25	X26	Y26	Z26	X27	Y27	Z27	X28	Y28	Z28	X29	Y29	Z29	X30	Y30	Z30	X31	Y31	Z31	X32	Y32	Z32	X33	Y33	Z33	X34	Y34	Z34	X35	Y35	Z35	X36	Y36	Z36	X37	Y37	Z37	X38	Y38	Z38	X39	Y39	Z39	X40	Y40	Z40	X41	Y41	Z41	X42	Y42	Z42	X43	Y43	Z43	X44	Y44	Z44	X45	Y45	Z45	X46	Y46	Z46	X47	Y47	Z47	X48	Y48	Z48	X49	Y49	Z49	X50	Y50	Z50	X51	Y51	Z51	

21	0.20000000	209.60594	544.91824	-169.75843	244.59966	417.15770	-188.57595	136.90109	95.41563	-208.91980	71.14179	67.23601	-262.50286	260.71341	36.63954	-152.69876	307.08994	60.32324	-220.33707	108.10535	529.99271	-526.52716	78.58838	422.78748	-507.94205	-239.71541	275.93261	-467.09471	-278.83027	325.84881	-411.53324	-254.97933	111.29565	-471.22971	-208.88138	101.95919	-409.63889	241.71095	305.88916	-214.63099	182.83062	406.73606	-143.52011	186.16141	290.21726	-153.12544	21.18668	485.22980	-540.35663	-58.08543	392.93419	-543.56716	267.76486	789.02136	-172.97855	280.02288	677.55310	-193.82432	257.96916	642.11475	-141.15343	182.69474	761.03445	-101.85237	201.31349	648.32497	-129.29073	176.76972	779.32452	-528.76652	195.76307	642.83433	-534.86813	65.11045	762.85900	-536.52303	85.06559	624.81392	-538.50090	193.56532	1042.09980	-177.56651	-16.22565	1077.43203	-250.76853	177.93010	1023.40672	-443.41634	-23.27291	1074.85006	-347.54429	86.50281	1575.85369	-280.63974	139.51909	1477.68107	-100.32660	158.28127	1524.94979	-460.44022	211.61451	1475.74256	-259.32275	210.70764	1477.76096	-306.79721	133.07081	1304.83710	-36.55128	38.51478	1092.28764	-86.24621	59.54697	1111.15204	-7.72303	153.37622	963.11306	-4.54715	185.51602	845.15714	-0.15917	153.75257	834.69547	27.23425	129.14861	1359.54436	-558.40030	-9.45247	1179.30376	-544.87653	35.95551	1189.84171	-612.72225	82.50355	1027.87145	-602.15208	76.84460	910.99518	-635.97402	52.75007	924.37478	-677.43026	106.50848	963.07721	-202.81855	94.71371	938.98920	-414.51311	117.11205	956.79727	-207.77141	104.32249	952.11087	-383.47072	
22	0.21000000	213.45656	544.90035	-169.74232	247.23016	416.81347	-188.58328	137.23292	95.79737	-208.84530	71.15384	67.66695	-262.34025	260.73082	36.63693	-152.69698	307.18948	60.21353	-220.33497	129.73317	533.40166	-527.90798	100.71268	426.49308	-509.35417	-218.24564	280.71964	-466.94285	-258.07562	329.58874	-411.06705	-230.68299	116.07275	-472.24187	-184.18487	107.19074	-410.93859	243.53137	305.56529	-214.65821	185.37107	406.82168	-143.51980	187.89316	290.29718	-153.09626	43.52597	489.30197	-541.23886	-36.27771	397.39502	-544.32386	274.85558	788.09549	-173.49864	285.61784	676.43428	-194.21351	263.53244	641.49617	-141.32520	190.17057	761.44412	-101.73775	207.02257	648.49835	-129.22247	191.43354	783.63449	-529.67447	213.72394	647.65795	-536.30035	80.14821	764.48968	-536.66431	103.50887	627.04857	-539.26198	203.78843	1043.31106	-177.57994	-6.30785	1079.06214	-249.51906	186.28235	1025.28130	-443.15705	-13.83969	1076.64653	-346.34604	96.68711	1577.27646	-277.05085	151.46251	1477.41483	-98.29381	166.25865	1528.33036	-458.20263	221.84327	1476.86097	-258.08896	220.66458	1479.32249	-305.52974	146.09514	1304.25749	-35.51158	51.21269	1091.73614	-84.73008	73.37508	1110.31274	-6.49472	167.51603	962.54046	-5.17207	200.09244	844.69666	-1.65967	168.68425	834.02165	26.10463	134.34388	1364.51391	-558.41004	-4.98118	1184.74945	-544.75268	39.22832	1196.10302	-613.21454	85.22599	1033.71285	-605.32831	78.10951	917.21127	-640.53734	53.73869	931.37717	-681.57643	116.46540	964.46218	-202.47645	103.40395	940.83297	-414.14639	126.86910	958.31663	-207.51209	113.22195	953.93802	-383.01636	
23	0.22000000	217.12977	544.90278	-169.74324	249.79266	416.54852	-188.64202	137.56361	96.22080	-208.76521	71.17495	68.06859	-262.20979	260.75869	36.63421	-152.70418	307.29129	60.09704	-220.34261	150.99716	537.17604	-529.03515	122.61921	430.53010	-510.65222	-196.25698	284.32805	-466.80053	-237.35886	331.83932	-410.69065	-204.62017	119.63947	-473.29858	-157.71826	111.61590	-412.19385	245.28706	305.30832	-214.73066	187.84839	406.95348	-143.54075	189.57205	290.42758	-153.08843	65.39408	493.56483	-541.75817	-14.60921	401.73073	-544.87777	281.71965	787.06773	-173.99595	291.09667	675.29279	-194.60767	268.87348	640.84385	-141.50674	197.46875	761.79545	-101.68707	212.51623	648.62420	-129.20074	205.79395	788.19234	-530.42347	231.39662	652.79324	-537.48013	95.05767	766.31646	-536.90980	121.79631	629.58218	-540.03894	213.85586	1044.48676	-177.52862	3.48999	1080.62453	-248.27474	194.78537	1027.32711	-442.90345	-4.49957	1078.53056	-345.17821	106.80044	1578.67716	-273.66065	163.40450	1477.22306	-96.50518	174.13760	1531.67646	-456.07005	231.98231	1477.99345	-257.04630	230.48944	1480.85803	-304.45813	159.15815	1303.79534	-34.68742	64.01866	1091.27225	-83.36801	87.26619	1109.59362	-5.41580	181.68407	962.08749	-5.85781	214.67736	844.34202	-3.19018	183.66938	833.50019	24.94597	139.43700	1369.50427	-558.39114	-0.47349	1190.10039	-544.63589	42.47501	1202.31984	-613.68389	88.14385	1039.59226	-608.38971	79.61205	923.47138	-644.87775	55.02299	938.31406	-685.49235	126.31950	965.79600	-202.20307	112.15593	942.82831	-413.87483	136.62341	959.68059	-207.35498	122.16994	955.88998	-382.69716	
24	0.23000000	220.63912	544.92471	-169.75611	252.29923	416.35553	-188.75069	137.89020	96.68279	-208.69977	71.19882	68.44318	-262.12261	260.80109	36.63293	-152.72109	307.40271	59.97655	-220.35857	171.88659	541.20503	-529.92405	144.35194	434.73402	-511.79684	-173.72633	286.65740	-466.71196	-216.38436	332.65184	-410.40815	-177.29770	121.97878	-474.38262	-129.97810	115.04549	-413.41986	246.99779	305.11879	-214.84148	190.29287	407.13171	-143.58354	191.22476	290.60836	-153.10321	86.82133	497.79623	-541.98572	7.00212	405.69144	-545.25811	288.46653	785.99646	-174.44200	296.46939	674.13949	-194.99293	274.01346	640.16638	-141.70784	204.58107	762.09861	-101.70437	217.86263	648.74127	-129.21304	219.89432	792.95295	-531.00347	248.81529	658.19314	-538.39376	109.81588	768.35106	-537.26230	139.94318	632.36150	-540.88606	223.73553	1045.61130	-177.40670	13.17050	1082.09463	-247.07337	203.60735	1029.57837	-442.66705	4.74133	1080.44032	-344.06052	116.85094	1580.05542	-270.46867	175.33889	1477.10404	-94.94748	181.96419	1534.94841	-454.02585	242.05089	1479.14577	-256.16615	240.17797	1482.36191	-303.55526	172.23824	1303.45573	-34.04935	76.91829	1090.89956	-82.16315	101.20866	1108.99055	-4.49428	195.88250	961.75670	-6.60638	229.25602	844.09355	-4.74782	198.67714	833.12051	23.75048	144.48311	1374.45790	-558.29573	4.09264	1195.36249	-544.49909	45.75323	1208.45926	-614.09366	91.22482	1045.46824	-611.36415	81.37306	929.76061	-649.04587	56.55291	945.16255	-689.19825	136.09249	967.05063	-202.02190	121.08317	944.98322	-413.73170	146.42801	960.95064	-207.26500	131.20205	957.95942	-382.47616	
25	0.24000000	223.99097	544.96233	-169.77458	254.74474	416.22245	-188.89286	138.21174	97.17639	-208.66660	71.24299	68.79715	-262.08428	260.86087	36.63609	-152.74852	307.52931	59.85669	-220.38163	192.38310	545.38098	-530.59677	165.94659	438.95148	-512.74639	-150.67433	287.66768	-466.68858	-194.95849	332.06523	-410.18149	-149.10435	123.12517	-475.49521	-101.36442	117.38225	-414.64927	248.67444	304.99347	-214.96649	192.70527	407.35667	-143.64751	192.85321	290.83854	-153.13804	107.84087	501.78270	-542.02313	28.63730	409.04937	-545.50700	295.17785	784.91995	-174.81366	301.77465	672.99219	-195.34151	278.96472	639.46686	-141.92457	211.48925	762.35857	-101.78044	223.15925	648.91120	-129.23344	233.78641	797.85834	-531.41463	266.00874	663.80380	-539.03784	124.43774	770.56872	-537.75027	157.94967	635.34030	-541.83500	233.42307	1046.68025	-177.20881	22.73925	1083.45010	-245.95356	212.78693	1032.00841	-442.42254	13.88374	1082.30820	-343.01647	126.83980	1581.40483	-267.47465	187.24422	1477.05925	-93.59282	189.76758	1538.09989	-452.05865	252.07358	1480.31869	-255.42287	249.74886	1483.82435	-302.79222	185.31361	1303.23735	-33.56388	89.88578	1090.61796	-81.10967	115.18248	1108.49595	-3.72931	210.10646	961.54894	-7.42253	243.82527	843.95356	-6.33083	213.67997	832.86990	22.51108	149.54608	1379.31111	-558.09618	8.73544	1200.53146	-544.31800	49.11231	1214.48202	-614.41487	94.43460	1051.29713	-614.27336	83.44718	936.05126	-653.08178	58.28976	951.89575	-692.69903	145.79301	968.21350	-201.92472	130.23143	947.25499	-413.70799	156.29808	962.17261	-207.19418	140.32406	960.10976	-382.28880	
26	0.25000000	227.18972	545.01074	-169.79845	257.11736	416.13668	-189.04964	138.52775	97.69320	-208.67548	71.33655	69.13644	-262.09691	260.93844	36.64725	-152.78748	307.67165	59.74224	-220.41096	212.45806	549.61394	-531.07912	187.41665	443.06948	-513.47064	-127.14396	287.37324	-466.71826	-172.99841	330.10254	-409.96075	-120.26043	123.14482	-476.65391	-72.13261	118.61315	-415.91978	250.32356	304.92653	-215.08153	195.06798	407.62776	-143.73217	194.44687	291.11593	-153.18995	128.47153	505.36617	-541.97540	50.34267	411.65270	-545.66523	301.89403	783.85429	-175.09834	307.07715	671.87506	-195.61858	283.73470	638.74720	-142.14408	218.18002	762.57743	-101.89878	228.50083	649.19575	-129.23388	247.51002	802.83694	-531.67367	282.99110	669.56381	-539.41749	138.96610	772.91225	-538.42257	175.79907	638.48004	-542.89100	242.94561	1047.69650	-176.93363	32.20268	1084.67758	-244.94338	222.23069	1034.53809	-442.13259	22.93235	1084.07302	-342.06371	136.76823	1582.71034	-264.67746	199.08461	1477.09088	-92.40410	197.56376	1541.08916	-450.16318	262.07376	1481.50663	-254.79486	259.24114	1485.23182	-302.14070	198.35961	1303.13187	-33.20184	102.88789	1090.42138	-80.19686	129.15876	1108.09740	-3.11348	224.34177	961.46041	-8.31111	258.38682	843.92258	-7.93977	228.66091	832.73380	21.22054	154.69671	1384.00024	-557.78208	13.47092	1205.58578	-544.06944	52.58698	1220.34563	-614.62673	97.75509	1057.03538	-617.12533	85.91459	942.30389	-657.00599	60.21269	958.48048	-695.98703	155.41914	969.28656	-201.88034	139.56758	949.56231	-413.76176	166.20804	963.36924	-207.09208	149.50656	962.27739	-382.06775	
